<svg width="34" height="35" viewBox="0 0 34 35" fill="none" xmlns="http://www.w3.org/2000/svg">
<path d="M26.8669 22.0809C27.4418 22.3002 27.663 23.1537 27.7069 23.526C27.7956 24.2052 27.597 24.4679 27.3758 24.4679C27.1548 24.4679 26.845 24.2052 26.514 23.6797C26.1822 23.1537 26.0497 22.5629 26.2268 22.2559C26.3369 22.0585 26.5792 21.9714 26.8669 22.0809ZM23.5084 24.5558C23.8623 24.5558 24.2599 24.7088 24.6135 25.0152C25.2983 25.5849 25.4974 26.2416 25.1438 26.7236C24.9446 26.9645 24.6135 27.1177 24.2378 27.1177C23.8623 27.1177 23.4645 26.9863 23.1994 26.7454C22.5806 26.2199 22.4041 25.3433 22.8011 24.862C22.9563 24.6646 23.1994 24.5558 23.5084 24.5558ZM15.775 30.8842C7.37737 30.8842 0.571777 24.1391 0.571777 15.8179C0.571777 7.49653 7.37807 0.752197 15.7743 0.752197C24.1713 0.752197 30.9775 7.4972 30.9775 15.8179C30.9775 18.6425 30.1822 21.2929 28.8348 23.5483C28.7901 23.6138 28.6795 23.592 28.6575 23.5041C28.1273 19.8036 25.8513 17.7665 22.5367 17.1539C22.2488 17.1097 22.2049 16.9348 22.5806 16.8912C23.5972 16.8034 25.0332 16.8252 25.7846 16.9565C25.8285 16.5843 25.8513 16.1902 25.8513 15.7961C25.8513 10.2994 21.3431 5.83172 15.7963 5.83172C10.2503 5.83172 5.74208 10.2994 5.74208 15.7961C5.74208 21.2929 10.2503 25.7605 15.797 25.7605H16.2606C16.1031 24.8714 16.0364 23.9688 16.0614 23.0665C16.0841 22.4534 16.2166 22.3655 16.4817 22.8473C17.8739 25.2343 19.863 27.3804 23.7517 28.2345C26.9336 28.9355 30.1155 29.7456 33.5407 34.0594C33.8497 34.4317 33.3862 34.8258 33.0325 34.5194C29.5414 31.4531 26.3595 30.4459 23.4645 30.4459C20.2159 30.4683 18.0071 30.8842 15.775 30.8842Z" fill="#FF8C00"/>
</svg>
