<svg width="55.48" height="55.48" viewBox="0 0 55.48 55.48" fill="none" xmlns="http://www.w3.org/2000/svg">
<g filter="url(#filter0_i_142_38)">
<circle cx="27.7653" cy="28.1613" r="27.7404" fill="url(#paint0_linear_142_38)"/>
</g>
<circle cx="27.7653" cy="28.1613" r="27.0417" stroke="url(#paint1_linear_142_38)" stroke-width="1.39734"/>
<path d="M25.2345 27.268L25.2324 26.7732C25.2324 24.7168 25.3528 22.8421 25.5342 21.62L25.6931 20.86C25.7815 20.4575 25.8977 19.9992 26.0189 19.7652C26.4625 18.9094 27.3299 18.3799 28.2582 18.3799H28.339C28.9441 18.4 30.2154 18.931 30.2154 18.9494C32.2611 19.8078 36.2077 22.3983 38.0305 24.2451L38.5602 24.7996C38.6989 24.9498 38.8547 25.1277 38.9515 25.2663C39.2747 25.6942 39.4362 26.2237 39.4362 26.7532C39.4362 27.3442 39.2548 27.8937 38.9119 28.3432L38.3677 28.9305L38.2457 29.0558C36.5918 30.849 32.2733 33.7812 30.0142 34.6785L29.6732 34.8092C29.2627 34.9563 28.6877 35.1318 28.339 35.148C27.8954 35.148 27.4716 35.0449 27.0677 34.8417C26.5631 34.5569 26.1607 34.1075 25.9381 33.578C25.7964 33.2117 25.5738 32.1111 25.5738 32.0911C25.3698 30.9815 25.2515 29.2305 25.2345 27.268ZM14.2842 26.7633C14.2842 25.592 15.2247 24.6423 16.3847 24.6423L21.5538 25.0995C22.4638 25.0995 23.2016 25.8444 23.2016 26.7633C23.2016 27.6838 22.4638 28.4272 21.5538 28.4272L16.3847 28.8844C15.2247 28.8844 14.2842 27.9347 14.2842 26.7633Z" fill="url(#paint2_linear_142_38)"/>
<defs>
<filter id="filter0_i_142_38" x="0.0249023" y="0.420959" width="55.481" height="55.4808" filterUnits="userSpaceOnUse" color-interpolation-filters="sRGB">
<feFlood flood-opacity="0" result="BackgroundImageFix"/>
<feBlend mode="normal" in="SourceGraphic" in2="BackgroundImageFix" result="shape"/>
<feColorMatrix in="SourceAlpha" type="matrix" values="0 0 0 0 0 0 0 0 0 0 0 0 0 0 0 0 0 0 127 0" result="hardAlpha"/>
<feOffset dy="-6.98668"/>
<feComposite in2="hardAlpha" operator="arithmetic" k2="-1" k3="1"/>
<feColorMatrix type="matrix" values="0 0 0 0 0 0 0 0 0 0 0 0 0 0 0 0 0 0 0.25 0"/>
<feBlend mode="normal" in2="shape" result="effect1_innerShadow_142_38"/>
</filter>
<linearGradient id="paint0_linear_142_38" x1="27.7653" y1="0.420959" x2="27.7653" y2="55.9017" gradientUnits="userSpaceOnUse">
<stop stop-color="#9C4B28"/>
<stop offset="1" stop-color="#4A200E"/>
</linearGradient>
<linearGradient id="paint1_linear_142_38" x1="30.7039" y1="45.9944" x2="30.7039" y2="0.42096" gradientUnits="userSpaceOnUse">
<stop stop-color="#FCA554"/>
<stop offset="1" stop-color="#ED892D" stop-opacity="0"/>
</linearGradient>
<linearGradient id="paint2_linear_142_38" x1="26.8602" y1="18.3799" x2="26.8602" y2="35.148" gradientUnits="userSpaceOnUse">
<stop offset="0.557292" stop-color="white"/>
<stop offset="1" stop-color="#AA3504"/>
</linearGradient>
</defs>
</svg>
