<svg width="29" height="30" viewBox="0 0 29 30" fill="none" xmlns="http://www.w3.org/2000/svg">
<path d="M9.07117 0.898972C9.65912 0.898972 10.1211 1.36622 10.1211 1.92966C10.1211 2.34193 10.471 2.67175 10.891 2.67175H12.2769C14.3907 2.68549 16.1125 4.37582 16.1265 6.43719V6.6983C17.4564 6.6983 18.7863 6.72578 20.1302 6.73953C24.9877 6.73953 28.5294 10.2026 28.5294 14.985V21.1279C28.5294 25.9103 24.9877 29.3734 20.1302 29.3734C18.1843 29.4146 16.2385 29.4284 14.2787 29.4284C12.3189 29.4284 10.3451 29.4146 8.39923 29.3734C3.54168 29.3734 0 25.9103 0 21.1279V14.985C0 10.2026 3.54168 6.73953 8.41323 6.73953C10.2471 6.71204 12.1229 6.68456 14.0267 6.68456V6.45093C14.0267 5.5027 13.2288 4.73312 12.2769 4.73312H10.891C9.30915 4.73312 8.02127 3.46882 8.02127 1.92966C8.02127 1.36622 8.49722 0.898972 9.07117 0.898972ZM10.1071 14.5453C9.51913 14.5453 9.05717 15.0125 9.05717 15.5759V17.0189H7.57331C6.99936 17.0189 6.5234 17.4861 6.5234 18.0496C6.5234 18.6268 6.99936 19.0803 7.57331 19.0803H9.05717V20.537C9.05717 21.1004 9.51913 21.5677 10.1071 21.5677C10.681 21.5677 11.157 21.1004 11.157 20.537V19.0803H12.6268C13.2008 19.0803 13.6768 18.6268 13.6768 18.0496C13.6768 17.4861 13.2008 17.0189 12.6268 17.0189H11.157V15.5759C11.157 15.0125 10.681 14.5453 10.1071 14.5453ZM21.1101 19.4238H20.9701C20.3807 19.4238 19.9202 19.8911 19.9202 20.4545C19.9202 21.0317 20.3807 21.4852 20.9701 21.4852H21.1101C21.684 21.4852 22.16 21.0317 22.16 20.4545C22.16 19.8911 21.684 19.4238 21.1101 19.4238ZM18.7163 14.6964H18.5763C17.9884 14.6964 17.5264 15.1637 17.5264 15.7271C17.5264 16.3043 17.9884 16.7578 18.5763 16.7578H18.7163C19.2902 16.7578 19.7662 16.3043 19.7662 15.7271C19.7662 15.1637 19.2902 14.6964 18.7163 14.6964Z" fill="#FCA554"/>
</svg>
