<svg width="29" height="30" viewBox="0 0 29 30" fill="none" xmlns="http://www.w3.org/2000/svg">
<path d="M11.6805 1.55125C13.3191 -0.179557 15.994 -0.179557 17.6466 1.53803L18.669 2.60823C19.0611 3.01927 19.5933 3.25562 20.1535 3.25562H21.5961C23.9209 3.25562 25.8116 5.23599 25.8116 7.67292V9.18645C25.8116 9.77219 26.0357 10.33 26.4278 10.7411L27.4362 11.7981C28.2345 12.6202 28.6686 13.7359 28.6686 14.9103C28.6826 16.0847 28.2485 17.2019 27.4642 18.0372L26.4278 19.1235C26.0357 19.5346 25.8116 20.0924 25.8116 20.6811V22.1917C25.8116 24.6286 23.9209 26.6119 21.5961 26.6119H20.1535C19.5933 26.6119 19.0611 26.8453 18.669 27.2564L17.6606 28.3134C16.8343 29.181 15.7559 29.6052 14.6775 29.6052C13.5992 29.6052 12.5208 29.181 11.6945 28.3295L10.6721 27.2564C10.28 26.8453 9.74776 26.6119 9.18756 26.6119H7.74503C5.42019 26.6119 3.5295 24.6286 3.5295 22.1917V20.6811C3.5295 20.0924 3.30542 19.5346 2.91328 19.1088L1.90492 18.0665C0.266322 16.3504 0.252317 13.545 1.89091 11.8142L2.91328 10.7411C3.30542 10.33 3.5295 9.77219 3.5295 9.1703V7.67292C3.5295 5.23599 5.42019 3.25562 7.74503 3.25562H9.18756C9.74776 3.25562 10.28 3.01927 10.6721 2.60823L11.6805 1.55125ZM18.2768 17.4206C17.5906 17.4206 17.0444 17.9946 17.0444 18.6978C17.0444 19.4171 17.5906 19.9897 18.2768 19.9897C18.9491 19.9897 19.4953 19.4171 19.4953 18.6978C19.4953 17.9946 18.9491 17.4206 18.2768 17.4206ZM19.1312 10.242C18.655 9.7443 17.8847 9.7443 17.4085 10.242L10.2099 17.7876C9.73375 18.2867 9.73375 19.1088 10.2099 19.608C10.434 19.8575 10.7421 19.9897 11.0642 19.9897C11.4004 19.9897 11.7085 19.8575 11.9326 19.608L19.1312 12.0638C19.6073 11.5647 19.6073 10.7411 19.1312 10.242ZM11.0782 9.87496C10.406 9.87496 9.84579 10.4475 9.84579 11.1521C9.84579 11.8729 10.406 12.444 11.0782 12.444C11.7505 12.444 12.2967 11.8729 12.2967 11.1521C12.2967 10.4475 11.7505 9.87496 11.0782 9.87496Z" fill="#FCA554"/>
</svg>
