<svg width="22" height="17" viewBox="0 0 22 17" fill="none" xmlns="http://www.w3.org/2000/svg">
<path d="M11.7733 0.0239258C12.1117 0.0239258 12.3868 0.291099 12.3868 0.620906V3.12627C12.3868 3.52751 12.7293 3.86026 13.1423 3.86026C13.5654 3.86026 13.8979 3.52751 13.8979 3.12627V0.620906C13.8979 0.291099 14.1729 0.0239258 14.5124 0.0239258H17.7965C19.9725 0.0239258 21.7355 1.73657 21.7355 3.85047V6.31669C21.7355 6.51242 21.6549 6.69836 21.5139 6.83537C21.3728 6.97238 21.1814 7.05068 20.9799 7.05068C20.2345 7.05068 19.63 7.63787 19.63 8.35229C19.63 9.0716 20.2274 9.65586 20.9658 9.66369C21.3819 9.6676 21.7355 9.94946 21.7355 10.3536V12.8639C21.7355 14.9768 19.9725 16.6904 17.7965 16.6904H14.5124C14.1729 16.6904 13.8979 16.4233 13.8979 16.0935V13.9796C13.8979 13.5685 13.5654 13.2456 13.1423 13.2456C12.7293 13.2456 12.3868 13.5685 12.3868 13.9796V16.0935C12.3868 16.4233 12.1117 16.6904 11.7733 16.6904H4.8413C2.67538 16.6904 0.902344 14.9778 0.902344 12.8639V10.3536C0.902344 9.94946 1.25594 9.6676 1.672 9.66369C2.41144 9.65586 3.00782 9.0716 3.00782 8.35229C3.00782 7.65744 2.42353 7.12897 1.6579 7.12897C1.45642 7.12897 1.26501 7.05068 1.12397 6.91367C0.982936 6.77665 0.902344 6.59071 0.902344 6.39498V3.86026C0.902344 1.75028 2.67941 0.0239258 4.85137 0.0239258H11.7733ZM13.1423 5.96437C12.7293 5.96437 12.3868 6.29711 12.3868 6.69836V10.613C12.3868 11.0142 12.7293 11.347 13.1423 11.347C13.5654 11.347 13.8979 11.0142 13.8979 10.613V6.69836C13.8979 6.29711 13.5654 5.96437 13.1423 5.96437Z" fill="#FCA554"/>
</svg>
