<svg width="22" height="22" viewBox="0 0 22 22" fill="none" xmlns="http://www.w3.org/2000/svg">
<path fill-rule="evenodd" clip-rule="evenodd" d="M1.44407 20.9853C0.921596 20.4427 0.921596 19.5628 1.44407 19.0202L17.8536 1.97653C18.3761 1.43386 19.2232 1.43386 19.7457 1.97653C20.2681 2.51919 20.2681 3.39902 19.7457 3.94168L3.33612 20.9853C2.81364 21.528 1.96654 21.528 1.44407 20.9853Z" fill="#FCA554"/>
<path fill-rule="evenodd" clip-rule="evenodd" d="M2.63796 1.96625C3.16044 1.42359 4.00753 1.42359 4.53001 1.96625L20.9396 19.0099C21.462 19.5526 21.462 20.4324 20.9396 20.9751C20.4171 21.5177 19.57 21.5177 19.0475 20.9751L2.63796 3.93141C2.11549 3.38875 2.11549 2.50892 2.63796 1.96625Z" fill="#FCA554"/>
</svg>
