<svg width="32" height="28" viewBox="0 0 32 28" fill="none" xmlns="http://www.w3.org/2000/svg">
<path d="M0.283691 3.29436C0.283691 1.83033 1.47052 0.643509 2.93454 0.643509H28.854C30.3181 0.643509 31.5049 1.83033 31.5049 3.29436C31.5049 4.75838 30.3181 5.9452 28.854 5.9452H2.93454C1.47052 5.9452 0.283691 4.75838 0.283691 3.29436Z" fill="#FCA554"/>
<path d="M0.283691 14.2987C0.283691 12.8347 1.47052 11.6479 2.93454 11.6479H28.854C30.3181 11.6479 31.5049 12.8347 31.5049 14.2987C31.5049 15.7628 30.3181 16.9496 28.854 16.9496H2.93454C1.47052 16.9496 0.283691 15.7628 0.283691 14.2987Z" fill="#FCA554"/>
<path d="M0.283691 25.3031C0.283691 23.8391 1.47052 22.6523 2.93454 22.6523H28.854C30.3181 22.6523 31.5049 23.8391 31.5049 25.3031C31.5049 26.7671 30.3181 27.954 28.854 27.954H2.93454C1.47052 27.954 0.283691 26.7671 0.283691 25.3031Z" fill="#FCA554"/>
</svg>
