<svg width="13" height="15" viewBox="0 0 13 15" fill="none" xmlns="http://www.w3.org/2000/svg">
<path d="M11.3105 12.974H4.57042V4.39574H11.3105M11.3105 3.17028H4.57042C4.24541 3.17028 3.93371 3.29939 3.70389 3.52921C3.47407 3.75903 3.34496 4.07073 3.34496 4.39574V12.974C3.34496 13.299 3.47407 13.6107 3.70389 13.8405C3.93371 14.0703 4.24541 14.1994 4.57042 14.1994H11.3105C11.6355 14.1994 11.9472 14.0703 12.177 13.8405C12.4068 13.6107 12.5359 13.299 12.5359 12.974V4.39574C12.5359 4.07073 12.4068 3.75903 12.177 3.52921C11.9472 3.29939 11.6355 3.17028 11.3105 3.17028ZM9.47226 0.71936H2.1195C1.79449 0.71936 1.48279 0.848471 1.25297 1.07829C1.02315 1.30811 0.894043 1.61981 0.894043 1.94482V10.523H2.1195V1.94482H9.47226V0.71936Z" fill="url(#paint0_linear_189_28)"/>
<defs>
<linearGradient id="paint0_linear_189_28" x1="6.71498" y1="0.71936" x2="6.71498" y2="14.1994" gradientUnits="userSpaceOnUse">
<stop offset="0.557292" stop-color="white"/>
<stop offset="1" stop-color="#AA3504"/>
</linearGradient>
</defs>
</svg>
