<svg width="29" height="30" viewBox="0 0 29 30" fill="none" xmlns="http://www.w3.org/2000/svg">
<path d="M11.4847 1.66588C13.1202 -0.0616331 15.7901 -0.061633 17.4395 1.65269L18.4599 2.72084C18.8513 3.13111 19.3825 3.36701 19.9417 3.36701H21.3814C23.7019 3.36701 25.5889 5.34361 25.5889 7.7759V9.28655C25.5889 9.87118 25.8126 10.428 26.204 10.8382L27.2104 11.8932C28.0072 12.7137 28.4405 13.8273 28.4405 14.9995C28.4545 16.1717 28.0212 17.2867 27.2384 18.1204L26.204 19.2047C25.8126 19.615 25.5889 20.1718 25.5889 20.7593V22.2671C25.5889 24.6993 23.7019 26.6789 21.3814 26.6789H19.9417C19.3825 26.6789 18.8513 26.9118 18.4599 27.3221L17.4535 28.3771C16.6288 29.243 15.5524 29.6665 14.4761 29.6665C13.3997 29.6665 12.3234 29.243 11.4987 28.3932L10.4783 27.3221C10.0869 26.9118 9.55568 26.6789 8.99654 26.6789H7.55676C5.23635 26.6789 3.34926 24.6993 3.34926 22.2671V20.7593C3.34926 20.1718 3.1256 19.615 2.73421 19.1901L1.72776 18.1497C0.0922832 16.4369 0.0783047 13.6368 1.71378 11.9093L2.73421 10.8382C3.1256 10.428 3.34926 9.87118 3.34926 9.27044V7.7759C3.34926 5.34361 5.23635 3.36701 7.55676 3.36701H8.99654C9.55568 3.36701 10.0869 3.13111 10.4783 2.72084L11.4847 1.66588ZM18.0685 17.505C17.3836 17.505 16.8384 18.078 16.8384 18.7798C16.8384 19.4978 17.3836 20.0692 18.0685 20.0692C18.7395 20.0692 19.2847 19.4978 19.2847 18.7798C19.2847 18.078 18.7395 17.505 18.0685 17.505ZM18.9212 10.3401C18.446 9.84334 17.6771 9.84334 17.2019 10.3401L10.017 17.8714C9.5417 18.3695 9.5417 19.1901 10.017 19.6882C10.2406 19.9373 10.5481 20.0692 10.8697 20.0692C11.2051 20.0692 11.5127 19.9373 11.7363 19.6882L18.9212 12.1584C19.3965 11.6602 19.3965 10.8382 18.9212 10.3401ZM10.8836 9.97375C10.2127 9.97375 9.65353 10.5452 9.65353 11.2485C9.65353 11.9679 10.2127 12.5379 10.8836 12.5379C11.5546 12.5379 12.0998 11.9679 12.0998 11.2485C12.0998 10.5452 11.5546 9.97375 10.8836 9.97375Z" fill="white"/>
</svg>
