<svg width="30" height="30" viewBox="0 0 30 30" fill="none" xmlns="http://www.w3.org/2000/svg">
<path d="M28.8316 1.78626C28.107 1.04262 27.0347 0.765574 26.0348 1.0572L2.7187 7.83747C1.66375 8.13056 0.916012 8.9719 0.714587 10.0407C0.508814 11.1285 1.22757 12.5093 2.16659 13.0867L9.45703 17.5675C10.2048 18.0268 11.1699 17.9117 11.7886 17.2876L20.1369 8.88732C20.5572 8.44989 21.2527 8.44989 21.673 8.88732C22.0932 9.31018 22.0932 9.9955 21.673 10.4329L13.3102 18.8346C12.69 19.4573 12.5741 20.4269 13.0305 21.1793L17.4851 28.5428C18.0067 29.4177 18.9052 29.9135 19.8906 29.9135C20.0065 29.9135 20.1369 29.9135 20.2529 29.8989C21.3832 29.7531 22.2816 28.9803 22.6149 27.8867L29.5271 4.60044C29.8314 3.60892 29.5561 2.5299 28.8316 1.78626Z" fill="#FCA554"/>
</svg>
