<svg width="26" height="18" viewBox="0 0 26 18" fill="none" xmlns="http://www.w3.org/2000/svg">
<path d="M11.2345 9.26799L11.2324 8.7732C11.2324 6.71683 11.3528 4.84208 11.5342 3.61996L11.6931 2.85998C11.7815 2.45748 11.8977 1.99918 12.0189 1.76522C12.4625 0.909428 13.3299 0.379944 14.2582 0.379944H14.339C14.9441 0.399953 16.2154 0.930977 16.2154 0.949447C18.2611 1.80779 22.2077 4.39829 24.0305 6.24511L24.5602 6.79957C24.6989 6.94984 24.8547 7.12769 24.9515 7.26632C25.2747 7.69422 25.4362 8.2237 25.4362 8.75319C25.4362 9.34424 25.2548 9.89373 24.9119 10.3432L24.3677 10.9305L24.2457 11.0558C22.5918 12.849 18.2733 15.7812 16.0142 16.6785L15.6732 16.8092C15.2627 16.9563 14.6877 17.1318 14.339 17.148C13.8954 17.148 13.4716 17.0449 13.0677 16.8417C12.5631 16.5569 12.1607 16.1075 11.9381 15.578C11.7964 15.2117 11.5738 14.1111 11.5738 14.0911C11.3698 12.9815 11.2515 11.2305 11.2345 9.26799ZM0.28418 8.76334C0.28418 7.59201 1.2247 6.64233 2.38473 6.64233L7.5538 7.09947C8.46383 7.09947 9.20162 7.84444 9.20162 8.76334C9.20162 9.68379 8.46383 10.4272 7.5538 10.4272L2.38473 10.8844C1.2247 10.8844 0.28418 9.93468 0.28418 8.76334Z" fill="url(#paint0_linear_23_535)"/>
<defs>
<linearGradient id="paint0_linear_23_535" x1="12.8602" y1="0.379944" x2="12.8602" y2="17.148" gradientUnits="userSpaceOnUse">
<stop offset="0.557292" stop-color="white"/>
<stop offset="1" stop-color="#AA3504"/>
</linearGradient>
</defs>
</svg>
