<svg width="22" height="20" viewBox="0 0 22 20" fill="none" xmlns="http://www.w3.org/2000/svg">
<path d="M16.4637 0.766388C17.8605 0.766388 19.2043 1.31847 20.1928 2.30908C21.1824 3.29761 21.7355 4.63094 21.7355 6.02676V14.2558C21.7355 17.1621 19.3709 19.5162 16.4637 19.5162H6.17313C3.26586 19.5162 0.902344 17.1621 0.902344 14.2558V6.02676C0.902344 3.12053 3.25545 0.766388 6.17313 0.766388H16.4637ZM17.6418 6.18301C17.423 6.17155 17.2147 6.2455 17.0574 6.39134L12.3606 10.1413C11.7564 10.6423 10.8908 10.6423 10.2773 10.1413L5.5898 6.39134C5.26585 6.15176 4.81793 6.18301 4.54814 6.46425C4.2669 6.7455 4.23565 7.19341 4.47419 7.50591L4.61064 7.64133L9.35018 11.3392C9.93351 11.7975 10.6408 12.0475 11.3814 12.0475C12.12 12.0475 12.8397 11.7975 13.422 11.3392L18.1209 7.57883L18.2043 7.49549C18.4532 7.19341 18.4532 6.75592 18.1928 6.45384C18.048 6.29863 17.8491 6.20384 17.6418 6.18301Z" fill="#FCA554"/>
</svg>
